<?xml version="1.0" encoding="UTF-8" standalone="no"?>
<svg
   id="wave"
   version="1.1"
   width="580.40906"
   height="64.457756"
   sodipodi:docname="bottom.svg"
   inkscape:version="1.2.2 (b0a8486, 2022-12-01)"
   xmlns:inkscape="http://www.inkscape.org/namespaces/inkscape"
   xmlns:sodipodi="http://sodipodi.sourceforge.net/DTD/sodipodi-0.dtd"
   xmlns="http://www.w3.org/2000/svg"
   xmlns:svg="http://www.w3.org/2000/svg">
  <defs
     id="defs34" />
  <sodipodi:namedview
     id="namedview32"
     pagecolor="#ffffff"
     bordercolor="#000000"
     borderopacity="0.25"
     inkscape:showpageshadow="2"
     inkscape:pageopacity="0.0"
     inkscape:pagecheckerboard="0"
     inkscape:deskcolor="#d1d1d1"
     showgrid="false"
     inkscape:zoom="0.49166667"
     inkscape:cx="319.32203"
     inkscape:cy="223.72881"
     inkscape:window-width="1440"
     inkscape:window-height="900"
     inkscape:window-x="0"
     inkscape:window-y="0"
     inkscape:window-maximized="0"
     inkscape:current-layer="wave" />
  <desc
     ivinci="yes"
     version="4.6"
     gridstep="20"
     showgrid="no"
     snaptogrid="no"
     codeplatform="0"
     id="desc2" />
  <g
     id="Layer1"
     name="Layer 1"
     opacity="1"
     transform="translate(-0.499969,-16.0423)">
    <g
       id="Shape1">
      <desc
         shapeid="1"
         type="0"
         basicinfo-basictype="0"
         basicinfo-roundedrectradius="12"
         basicinfo-polygonsides="6"
         basicinfo-starpoints="5"
         bounding="rect(-279.878,-31.2762,559.756,62.5526)"
         text=""
         font-familyname="Helvetica"
         font-pixelsize="20"
         font-bold="0"
         font-underline="0"
         font-alignment="1"
         strokestyle="0"
         markerstart="0"
         markerend="0"
         shadowenabled="0"
         shadowoffsetx="0"
         shadowoffsety="2"
         shadowblur="4"
         shadowopacity="160"
         blurenabled="0"
         blurradius="4"
         transform="matrix(1.03603,0,0.00804184,0.959194,290.713,50.5)"
         pers-center="0,0"
         pers-size="0,0"
         pers-start="0,0"
         pers-end="0,0"
         locked="0"
         mesh=""
         flag=""
         id="desc4" />
      <path
         id="shapePath1"
         d="m 0.985291,78.3775 c 15.540409,0 41.875109,3.7623 62.161809,0 15.1207,-2.8043 30.4444,-9.0731 41.2799,-19.1839 20.56,-19.1839 26.269,-22.6519 41.281,-19.1839 18.989,4.3867 20.881,19.1839 41.763,38.3678 11.005,10.1108 25.836,-19.1839 41.28,-19.1839 15.444,0 27.307,24.4943 41.602,19.1839 27.123,-10.0759 32.812,-53.0915 61.679,-57.5517 24.533,-3.7904 41.03,26.5055 62.484,38.3678 13.305,7.3567 26.157,19.1839 41.602,19.1839 21.841,0 60.801,-19.1839 82.642,-19.1839 15.445,0 41.429,19.1839 62.149,19.1839"
         style="fill:#fb0044;fill-opacity:0.878431;fill-rule:evenodd;stroke:none" />
    </g>
  </g>
  <g
     id="Layer2"
     name="Layer 2"
     opacity="1"
     transform="translate(-0.499969,-16.0423)">
    <g
       id="Shape2">
      <desc
         shapeid="2"
         type="0"
         basicinfo-basictype="0"
         basicinfo-roundedrectradius="12"
         basicinfo-polygonsides="6"
         basicinfo-starpoints="5"
         bounding="rect(-269.999,-35.2583,539.998,70.5166)"
         text=""
         font-familyname="Helvetica"
         font-pixelsize="20"
         font-bold="0"
         font-underline="0"
         font-alignment="1"
         strokestyle="0"
         markerstart="0"
         markerend="0"
         shadowenabled="0"
         shadowoffsetx="0"
         shadowoffsety="2"
         shadowblur="4"
         shadowopacity="160"
         blurenabled="0"
         blurradius="4"
         transform="matrix(1.03704,0,0,0.911372,280.5,48.1757)"
         pers-center="0,0"
         pers-size="0,0"
         pers-start="0,0"
         pers-end="0,0"
         locked="0"
         mesh=""
         flag=""
         id="desc9" />
      <path
         id="shapePath2"
         d="m 0.500061,78.2669 c 15.555539,0 41.481439,0 62.222139,0 46.3778,0 62.2218,-36.4549 103.7038,-54.6824 37.102,-16.30309 41.481,36.4549 62.222,54.6824 17.626,15.4903 39.555,-62.2246 64.132,-62.2246 21.036,0 18.831,4.4577 60.313,43.9971 19.882,18.9512 41.481,18.2275 62.222,18.2275 21.862,0 61.1,-18.2274 82.963,-18.2275 21.862,10e-5 46.666,13.6706 62.222,18.2275"
         style="fill:url(#radialGradientFill2);fill-opacity:1;fill-rule:evenodd;stroke:none" />
      <defs
         id="defs17">
        <radialGradient
           id="radialGradientFill2"
           gradientUnits="userSpaceOnUse"
           cx="285.31299"
           cy="39.062"
           r="291.11499"
           fx="-188.61301"
           fy="51.821201">
          <stop
             offset="0"
             stop-color="#ffffff"
             stop-opacity="1"
             id="stop12" />
          <stop
             offset="0.103307"
             stop-color="#097afc"
             stop-opacity="0.878431"
             id="stop14" />
        </radialGradient>
      </defs>
    </g>
  </g>
  <g
     id="Layer3"
     name="Layer 3"
     opacity="1"
     transform="translate(-0.499969,-16.0423)">
    <g
       id="Shape3">
      <desc
         shapeid="3"
         type="0"
         basicinfo-basictype="0"
         basicinfo-roundedrectradius="12"
         basicinfo-polygonsides="6"
         basicinfo-starpoints="5"
         bounding="rect(-271.999,-21.1985,543.998,42.3969)"
         text=""
         font-familyname="Helvetica"
         font-pixelsize="20"
         font-bold="0"
         font-underline="0"
         font-alignment="1"
         strokestyle="0"
         markerstart="0"
         markerend="0"
         shadowenabled="0"
         shadowoffsetx="0"
         shadowoffsety="2"
         shadowblur="4"
         shadowopacity="160"
         blurenabled="0"
         blurradius="4"
         transform="matrix(1.03676,0,0,0.943465,282.498,60.5)"
         pers-center="0,0"
         pers-size="0,0"
         pers-start="0,0"
         pers-end="0,0"
         locked="0"
         mesh=""
         flag=""
         id="desc21" />
      <path
         id="shapePath3"
         d="m 4.64236,78.466 c -20.73536,0 42.08964,4.5765 62.20584,0 36.1098,-8.215 66.4558,-37.7386 103.6768,-37.7386 24.92,0 37.624,34.0104 62.206,37.7386 21.559,3.2699 40.349,-18.8693 62.206,-18.8693 15.455,0 26.225,21.1815 41.47,18.8693 30.49,-4.6243 52.452,-33.1143 82.941,-37.7386 15.245,-2.3121 47.856,13.6459 62.206,18.8693 20.294,7.387 41.002,14.0453 62.206,18.8693 6.706,1.5255 20.735,0 20.735,0 0,0 -380.147,0 -559.85264,0 z"
         style="fill:#09fc83;fill-opacity:1;fill-rule:evenodd;stroke:none" />
    </g>
  </g>
  <g
     id="Layer4"
     name="Layer 4"
     opacity="1"
     transform="translate(-0.499969,-16.0423)">
    <g
       id="Shape4">
      <desc
         shapeid="4"
         type="0"
         basicinfo-basictype="0"
         basicinfo-roundedrectradius="12"
         basicinfo-polygonsides="6"
         basicinfo-starpoints="5"
         bounding="rect(-260.001,-22.4804,520.002,44.9608)"
         text=""
         font-familyname="Helvetica"
         font-pixelsize="20"
         font-bold="0"
         font-underline="0"
         font-alignment="1"
         strokestyle="0"
         markerstart="0"
         markerend="0"
         shadowenabled="0"
         shadowoffsetx="0"
         shadowoffsety="2"
         shadowblur="4"
         shadowopacity="160"
         blurenabled="0"
         blurradius="4"
         transform="matrix(1.07692,0,0,0.889664,280.5,60.5)"
         pers-center="0,0"
         pers-size="0,0"
         pers-start="0,0"
         pers-end="0,0"
         locked="0"
         mesh=""
         flag=""
         id="desc26" />
      <path
         id="shapePath4"
         d="m 0.499969,79.3816 c 0,0 43.293431,2.5164 64.615431,0 29.3042,-3.4584 56.5516,-17.7933 86.1536,-17.7933 22.704,0 41.912,17.7933 64.616,17.7933 16.053,0 27.023,-17.7933 43.077,-17.7933 16.053,0 27.502,21.0099 43.076,17.7933 19.701,-4.0687 23.165,-32.2966 43.077,-35.5866 22.263,-3.6783 41.912,17.7933 64.616,17.7933 22.703,0 48.561,-31.0556 64.615,-17.7933 21.539,17.7933 86.154,35.5866 86.154,35.5866 0,0 -560.000031,0 -560.000031,0 z"
         style="fill:#fcfafc;fill-opacity:0.768627;fill-rule:evenodd;stroke:none" />
    </g>
  </g>
</svg>
